<?xml version="1.0" standalone="no"?>
<!DOCTYPE svg PUBLIC "-//W3C//DTD SVG 20010904//EN"
 "http://www.w3.org/TR/2001/REC-SVG-20010904/DTD/svg10.dtd">
<svg version="1.0" xmlns="http://www.w3.org/2000/svg"
 width="500.000000pt" height="500.000000pt" viewBox="0 0 500.000000 500.000000"
 preserveAspectRatio="xMidYMid meet">

<g transform="translate(0.000000,500.000000) scale(0.100000,-0.100000)"
fill="#000000" stroke="none">
<path d="M2350 4423 c-383 -37 -690 -158 -992 -390 -32 -24 -101 -87 -154
-141 -315 -316 -493 -698 -534 -1147 -7 -66 -10 -156 -8 -199 l3 -79 -208 -69
c-114 -39 -205 -73 -203 -76 2 -4 58 -176 126 -382 67 -206 123 -376 125 -378
2 -2 91 26 198 61 l196 65 57 -87 c221 -333 516 -573 874 -714 730 -287 1576
-70 2073 532 218 263 339 525 408 886 9 46 14 146 14 291 l0 221 160 53 c88
29 163 55 167 59 6 5 -235 754 -247 768 -1 2 -82 -24 -180 -57 -134 -45 -181
-57 -186 -47 -67 117 -314 379 -457 482 -215 155 -466 266 -724 319 -145 30
-371 43 -508 29z m260 -463 c248 -21 446 -90 655 -228 99 -66 315 -268 315
-294 0 -7 -34 -23 -75 -36 l-74 -22 -48 51 c-57 61 -184 162 -268 211 -527
312 -1214 175 -1586 -317 -126 -167 -216 -388 -235 -576 -3 -38 -12 -73 -18
-78 -6 -4 -36 -16 -66 -26 -30 -10 -61 -20 -69 -23 -12 -4 -13 10 -8 84 7 111
30 225 67 329 78 221 171 369 339 535 221 219 525 362 824 388 56 5 109 10
117 11 8 0 67 -4 130 -9z m1842 -676 c54 -164 98 -300 98 -301 0 -1 -1111
-368 -1271 -419 -45 -14 -47 -17 -54 -62 -23 -160 -100 -309 -224 -432 -140
-138 -337 -209 -546 -197 -175 10 -326 74 -455 193 l-60 56 -686 -226 c-378
-125 -691 -223 -695 -219 -6 7 -199 585 -199 597 0 4 672 226 1292 429 l127
41 21 71 c33 108 95 208 185 300 137 138 280 202 476 212 171 9 308 -28 449
-122 45 -30 87 -55 93 -55 7 0 309 99 672 219 363 121 664 218 670 217 5 -1
53 -137 107 -302z m-582 -721 c0 -583 -412 -1122 -985 -1288 -482 -139 -1002
-7 -1354 346 -81 81 -173 197 -168 212 1 5 34 20 72 33 l70 23 20 -27 c10 -15
57 -66 103 -113 166 -172 343 -274 592 -341 75 -20 108 -23 280 -23 174 0 205
3 285 24 244 66 427 172 596 348 201 210 311 463 334 770 l7 92 57 20 c94 33
91 35 91 -76z"/>
<path d="M2390 3281 c-71 -13 -186 -56 -248 -93 -73 -43 -188 -158 -231 -231
-30 -52 -86 -186 -79 -192 4 -3 1091 355 1098 361 17 17 -157 112 -255 138
-71 20 -222 28 -285 17z"/>
<path d="M3330 3112 c-25 -8 -47 -16 -49 -18 -2 -2 22 -84 54 -183 l58 -180
32 4 c41 6 85 22 85 32 0 22 -105 321 -119 339 -15 20 -18 20 -61 6z m40 -11
c0 -5 -11 -12 -25 -15 -14 -4 -25 -12 -25 -19 0 -7 22 -79 49 -160 27 -81 46
-147 43 -147 -8 0 -116 319 -110 324 2 3 45 19 66 25 1 1 2 -3 2 -8z"/>
<path d="M3543 3081 c-55 -26 -79 -61 -67 -103 12 -40 50 -68 103 -75 53 -7
35 -23 -26 -23 -48 0 -47 2 -31 -51 11 -38 13 -39 56 -39 97 0 172 44 172 103
0 42 -66 106 -111 108 -33 2 -33 2 6 8 34 5 40 10 43 34 2 15 -3 34 -12 42
-20 21 -82 18 -133 -4z m49 -14 c-18 -5 -44 -21 -58 -34 -21 -19 -25 -31 -22
-60 4 -31 3 -33 -9 -17 -14 20 -17 53 -5 70 13 21 77 54 102 53 22 -1 22 -2
-8 -12z m68 -187 c0 -12 -44 -24 -62 -17 -7 3 -3 6 9 6 12 1 25 6 28 11 8 13
25 13 25 0z m-110 -29 c0 -5 3 -17 7 -27 4 -11 3 -15 -4 -11 -14 9 -24 47 -12
47 5 0 9 -4 9 -9z"/>
<path d="M2958 2999 c-48 -18 -47 -68 1 -94 19 -10 21 -14 9 -15 -25 0 -23 -9
23 -147 39 -118 42 -123 68 -123 40 0 93 20 88 34 -2 6 -19 58 -37 116 -17 58
-39 113 -47 122 -9 10 -13 26 -10 39 4 15 -2 30 -23 50 -31 32 -33 32 -72 18z
m24 -25 c-12 -8 -22 -25 -23 -37 0 -22 0 -22 -12 2 -9 19 -8 26 8 37 10 8 26
14 34 14 11 0 9 -5 -7 -16z m36 -96 c-16 -5 -28 -15 -28 -22 0 -7 14 -52 30
-102 17 -49 29 -96 27 -104 -2 -8 -18 32 -36 89 -18 57 -35 110 -38 117 -5 14
28 33 57 33 8 -1 3 -5 -12 -11z"/>
<path d="M3263 2992 c-12 -2 -33 -17 -47 -33 -20 -24 -26 -26 -33 -14 -7 12
-15 13 -46 3 -20 -6 -37 -16 -37 -22 0 -6 18 -65 39 -130 43 -130 56 -145 109
-125 15 5 32 11 39 14 8 3 4 26 -12 79 -26 83 -20 108 29 120 23 6 24 8 14 43
-14 51 -29 69 -55 65z m-7 -45 c-14 -15 -26 -32 -26 -39 0 -9 -3 -9 -11 -1
-15 15 5 51 34 62 31 12 32 7 3 -22z m-86 -16 c0 -5 -9 -11 -19 -14 -19 -4
-18 -10 14 -113 19 -59 33 -110 30 -112 -3 -3 -75 209 -75 223 0 4 31 20 48
24 1 1 2 -3 2 -8z"/>
<path d="M2748 2905 c-120 -44 -160 -154 -99 -273 34 -66 73 -87 161 -87 63 0
84 5 133 29 32 16 56 34 54 40 -3 6 -15 45 -28 86 -35 109 -38 111 -126 82
-76 -25 -80 -30 -63 -79 9 -25 16 -29 41 -28 33 2 49 -13 28 -26 -42 -26 -86
4 -96 65 -10 65 29 106 101 106 32 0 34 3 38 37 3 23 -1 43 -8 50 -16 17 -89
15 -136 -2z m38 -17 c-22 -6 -57 -29 -82 -53 -42 -40 -44 -44 -44 -99 0 -31 7
-72 14 -91 21 -50 9 -43 -14 8 -23 50 -25 117 -5 157 23 45 98 89 150 88 11 0
3 -5 -19 -10z m74 -131 c-44 -17 -55 -26 -52 -41 3 -11 0 -16 -7 -12 -27 17
-10 43 37 58 70 24 85 20 22 -5z m30 -102 c0 -22 -33 -45 -47 -32 -2 3 5 8 17
12 17 5 20 12 15 32 -4 16 -2 22 5 18 5 -3 10 -17 10 -30z"/>
<path d="M2136 2703 c-22 -7 -42 -15 -44 -18 -3 -3 6 -32 19 -65 24 -61 32
-66 84 -61 11 1 23 5 28 10 11 11 -12 100 -32 127 -15 19 -19 20 -55 7z m17
-25 c-27 -13 -28 -18 -9 -63 8 -19 12 -35 7 -35 -4 0 -13 17 -20 38 -8 20 -16
42 -18 49 -4 11 16 20 47 21 8 0 5 -4 -7 -10z"/>
<path d="M2355 2695 c-56 -20 -99 -69 -90 -104 10 -39 43 -70 84 -77 20 -4 43
-10 51 -15 16 -9 5 -11 -67 -13 -24 -1 -32 -5 -28 -16 2 -8 7 -27 10 -42 5
-20 15 -28 40 -32 48 -9 121 12 157 45 26 26 30 34 25 66 -8 45 -38 78 -91 97
l-41 14 38 1 c34 1 37 3 37 29 -1 60 -43 76 -125 47z m42 -19 c-61 -17 -97
-50 -97 -90 0 -24 -3 -27 -10 -16 -15 22 -12 45 8 69 19 24 83 50 122 50 15 0
7 -5 -23 -13z m46 -197 c-6 -6 -30 -12 -54 -14 l-44 -4 38 8 c21 4 43 13 49
19 7 7 14 9 17 7 2 -3 0 -10 -6 -16z m-100 -39 c3 -11 1 -18 -4 -14 -5 3 -9
12 -9 20 0 20 7 17 13 -6z"/>
<path d="M1700 2582 c-25 -8 -46 -16 -48 -17 -1 -1 5 -24 13 -51 8 -27 15 -50
15 -51 0 -2 -14 -3 -31 -3 -34 0 -88 -46 -90 -77 -5 -83 27 -165 75 -194 41
-25 97 -24 129 1 14 11 37 20 50 20 14 0 37 4 50 9 l25 10 -54 166 c-30 91
-62 174 -72 184 -16 17 -20 17 -62 3z m18 -24 c-33 -12 -33 -13 -8 -80 10 -28
15 -47 9 -41 -5 5 -19 33 -29 62 l-20 52 22 9 c13 5 30 9 38 9 8 -1 3 -5 -12
-11z m-95 -142 c-24 -21 -28 -31 -28 -78 1 -29 9 -68 18 -87 13 -26 14 -31 2
-21 -22 18 -48 115 -40 150 7 30 38 60 63 60 7 0 0 -11 -15 -24z m107 -81 c9
-28 9 -39 0 -51 -16 -19 -36 -3 -43 33 -11 59 25 74 43 18z m37 -28 c4 -36 2
-45 -12 -51 -22 -8 -34 2 -17 13 16 9 18 36 8 76 -6 23 -5 27 4 18 7 -6 15
-31 17 -56z"/>
<path d="M1925 2551 c-22 -10 -49 -25 -59 -33 -18 -14 -18 -16 5 -47 13 -17
29 -29 36 -27 19 8 16 0 -12 -28 -86 -86 60 -210 154 -130 17 14 38 24 48 23
30 -5 75 11 70 24 -2 7 -15 47 -27 91 -31 104 -69 146 -131 146 -24 0 -62 -9
-84 -19z m9 -31 c-67 -34 -68 -34 -58 -19 8 13 83 48 103 49 8 0 -13 -13 -45
-30z m96 -58 c0 -4 -22 -17 -50 -30 -55 -25 -82 -64 -74 -103 5 -19 4 -21 -5
-9 -6 8 -11 27 -11 42 0 30 42 68 95 85 17 6 29 16 27 22 -1 7 2 10 8 6 5 -3
10 -9 10 -13z m24 -100 c-6 -9 -20 -18 -30 -20 -18 -3 -18 -2 -1 8 9 6 17 21
17 32 0 17 3 19 12 10 9 -9 10 -17 2 -30z m-42 6 c-7 -7 -12 -8 -12 -2 0 6 3
14 7 17 3 4 9 5 12 2 2 -3 -1 -11 -7 -17z"/>
<path d="M2585 2336 c-319 -106 -580 -197 -580 -203 0 -20 116 -111 188 -146
97 -48 191 -70 302 -70 120 0 192 16 300 68 140 66 247 170 317 307 48 95 85
240 61 237 -5 -1 -269 -88 -588 -193z"/>
<path d="M1323 2437 l-63 -19 0 -189 0 -189 26 0 c15 0 44 5 65 11 34 11 38
16 41 47 3 31 8 37 40 48 34 12 39 11 48 -5 5 -10 20 -21 34 -25 30 -7 102 18
98 35 -3 13 -210 297 -221 303 -3 1 -34 -6 -68 -17z m57 -6 c0 -5 -19 -15 -42
-23 l-43 -13 -5 -170 c-6 -168 -10 -131 -12 99 l-1 80 49 17 c27 10 50 18 52
18 1 1 2 -3 2 -8z m20 -161 c7 -13 6 -19 -4 -23 -9 -4 -15 4 -18 23 -5 31 5
31 22 0z m21 -46 c-18 -8 -36 -13 -39 -10 -6 7 37 25 58 25 8 -1 0 -7 -19 -15z"/>
</g>
</svg>
